#!OML:ASF F:\VICON\USERDATA\INSTALL\Justin_Nancy\Justin_Nancy.ASF
:FULLY-SPECIFIED
:DEGREES
131
root -14.5051 16.7204 20.2159 -9.7583 -47.476 10.7826
lowerback 11.947 0.492122 -5.31768
upperback -0.348111 -0.0404747 0.90405
thorax -7.09051 0.187654 3.97499
lowerneck -16.5582 -5.4583 -12.0631
upperneck 15.921 -6.43561 9.85642
head 8.39563 -2.84944 4.51504
rclavicle -3.52346e-014 2.94201e-014
rhumerus -50.4303 4.63922 -93.9287
rradius 105.059
rwrist -8.15468
rhand -15.2717 25.3802
rfingers 7.12502
rthumb 10.9027 -4.31677
lclavicle -3.52346e-014 2.94201e-014
lhumerus -45.7211 -3.79258 91.6958
lradius 109.898
lwrist 32.6422
lhand -12.3903 8.33648
lfingers 7.12502
lthumb 13.6809 37.8668
rfemur -23.2231 -7.06905 12.5299
rtibia 88.2948
rfoot -2.98193 -8.4979
rtoes 10.4841
lfemur -15.1781 -1.3979 -30.3326
ltibia 44.6212
lfoot -18.0542 3.81577
ltoes -7.49517
132
root -14.7613 16.7516 20.44 -10.1749 -48.0694 10.9091
lowerback 12.463 0.4548 -5.68807
upperback -0.351839 -0.169338 0.985212
thorax -7.37353 0.148798 4.30132
lowerneck -18.5834 -5.16318 -10.8419
upperneck 18.1335 -5.92205 8.23703
head 9.35732 -2.6524 3.82709
rclavicle 8.57259e-014 -1.74931e-014
rhumerus -51.0579 4.78173 -94.1028
rradius 105.066
rwrist -8.92767
rhand -15.1223 25.4507
rfingers 7.12502
rthumb 11.0467 -4.23864
lclavicle 8.57259e-014 -1.74931e-014
lhumerus -45.1275 -3.10152 91.3247
lradius 110.455
lwrist 32.6004
lhand -11.6793 10.0669
lfingers 7.12502
lthumb 14.3661 39.5498
rfemur -25.0797 -6.79386 12.977
rtibia 87.0626
rfoot -4.03878 -7.68453
rtoes 3.91942
lfemur -13.6223 -0.778096 -30.2987
ltibia 44.7886
lfoot -17.895 4.53204
ltoes -12.0146
133
root -15.0269 16.7881 20.6799 -9.87214 -49.0528 11.3636
lowerback 11.5382 0.48979 -6.05209
upperback -0.448102 -0.1188 0.95453
thorax -6.95926 0.175743 4.457
lowerneck -19.648 -4.87376 -10.1715
upperneck 19.2456 -5.48062 7.43356
head 9.84783 -2.47135 3.50121
rclavicle 3.46382e-014 -7.15625e-015
rhumerus -51.9838 5.12729 -94.3066
rradius 105.579
rwrist -9.62977
rhand -14.6953 25.5292
rfingers 7.12502
rthumb 11.4586 -4.13764
lclavicle 3.46382e-014 -7.15625e-015
lhumerus -44.6038 -2.51727 91.1314
lradius 111.129
lwrist 32.9502
lhand -11.6923 11.324
lfingers 7.12502
lthumb 14.3535 40.8078
rfemur -27.9271 -5.96149 13.3692
rtibia 85.5364
rfoot -4.33923 -7.8516
rtoes 0.792785
lfemur -13.1498 0.127689 -30.5577
ltibia 44.9498
lfoot -17.356 4.87773
ltoes -16.0004
134
root -15.2929 16.8419 20.9451 -9.62171 -49.4789 11.6521
lowerback 10.3565 0.307216 -5.81564
upperback -0.209176 -0.263093 0.733875
thorax -6.01771 0.0562234 4.0971
lowerneck -20.0521 -4.72902 -9.82333
upperneck 19.3421 -5.2966 7.22502
head 9.92063 -2.37557 3.39478
rclavicle 9.28821e-014 -2.3059e-014
rhumerus -52.3242 5.23427 -94.6971
rradius 106.176
rwrist -9.95262
rhand -13.8657 25.1414
rfingers 7.12502
rthumb 12.2586 -4.47936
lclavicle 9.28821e-014 -2.3059e-014
lhumerus -43.712 -2.29542 90.8704
lradius 111.564
lwrist 33.5934
lhand -11.9907 11.3951
lfingers 7.12502
lthumb 14.0659 40.8991
rfemur -30.0356 -5.65221 13.6317
rtibia 83.5029
rfoot -5.01699 -8.1723
rtoes 0.394087
lfemur -12.3775 0.425759 -30.8912
ltibia 45.0441
lfoot -16.4716 4.1262
ltoes -18.3038
135
root -15.5568 16.9148 21.2125 -9.48435 -49.2696 11.4494
lowerback 10.0332 -0.0612044 -5.35886
upperback -0.0406827 -0.680599 0.643534
thorax -5.61336 -0.18056 3.79906
lowerneck -20.3177 -4.60564 -9.46944
upperneck 19.5635 -5.12754 6.84543
head 10.0103 -2.31062 3.22661
rclavicle -3.762e-014 -3.18055e-015
rhumerus -52.2744 4.89721 -94.9432
rradius 106.07
rwrist -10.101
rhand -13.0869 25.1854
rfingers 7.12502
rthumb 13.0094 -4.38896
lclavicle -3.762e-014 -3.18055e-015
lhumerus -43.0629 -2.12254 90.6465
lradius 111.854
lwrist 34.1373
lhand -11.9368 11.0761
lfingers 7.12502
lthumb 14.1179 40.5765
rfemur -31.0328 -5.82497 14.0073
rtibia 80.9914
rfoot -6.63717 -8.31196
rtoes 3.48949
lfemur -11.0747 0.171573 -30.9028
ltibia 45.0538
lfoot -14.933 3.35337
ltoes -21.371
136
root -15.828 16.9887 21.4689 -9.49335 -49.0349 11.3806
lowerback 10.0648 -0.375967 -5.26425
upperback -0.162985 -1.08957 0.693265
thorax -5.71788 -0.377657 3.85911
lowerneck -19.9366 -4.39872 -9.50066
upperneck 19.6716 -4.81323 6.5907
head 9.94424 -2.20687 3.19253
rclavicle 1.76421e-014 0
rhumerus -53.0029 4.87473 -94.9092
rradius 106.263
rwrist -10.5629
rhand -12.8908 25.6854
rfingers 7.12502
rthumb 13.1985 -3.87676
lclavicle 1.76421e-014 0
lhumerus -42.9652 -1.9077 90.6724
lradius 112.058
lwrist 34.3866
lhand -12.0198 10.446
lfingers 7.12502
lthumb 14.038 39.952
rfemur -31.6517 -5.80968 14.2517
rtibia 78.0178
rfoot -8.44764 -8.85269
rtoes 10.5812
lfemur -9.71739 0.0503124 -30.9238
ltibia 44.7977
lfoot -13.0081 2.7719
ltoes -25.1756
137
root -16.1074 17.0624 21.7138 -9.90885 -48.7519 11.8946
lowerback 9.95758 -0.709312 -5.71557
upperback -0.252642 -1.58474 0.64848
thorax -5.69058 -0.607739 4.13635
lowerneck -19.4642 -3.9734 -9.40772
upperneck 19.6749 -4.24178 6.35732
head 9.79923 -1.97255 3.18213
rclavicle -5.35228e-014 -1.19271e-014
rhumerus -54.2106 5.53312 -95.0015
rradius 106.842
rwrist -11.2374
rhand -13.1875 26.0477
rfingers 7.12502
rthumb 12.9124 -3.53277
lclavicle -5.35228e-014 -1.19271e-014
lhumerus -42.9364 -1.67911 90.5805
lradius 112.304
lwrist 34.6342
lhand -12.6528 10.0056
lfingers 7.12502
lthumb 13.4278 39.5528
rfemur -31.9035 -5.4151 13.8674
rtibia 74.8537
rfoot -11.3643 -8.45303
rtoes 25.0308
lfemur -8.43878 -0.174497 -31.2582
ltibia 44.4616
lfoot -11.0941 1.67367
ltoes -26.2623
138
root -16.3976 17.1952 21.9739 -10.2111 -48.4736 12.4603
lowerback 9.63792 -1.02185 -6.14306
upperback -0.297583 -2.03934 0.497593
thorax -5.49838 -0.827396 4.27135
lowerneck -19.328 -3.68535 -9.04922
upperneck 19.8889 -3.89603 6.03218
head 9.80413 -1.82821 3.06104
rclavicle -7.87684e-014 2.70347e-014
rhumerus -55.33 6.19853 -95.347
rradius 107.497
rwrist -11.7835
rhand -13.4154 26.2038
rfingers 7.12502
rthumb 12.6927 -3.39052
lclavicle -7.87684e-014 2.70347e-014
lhumerus -42.7322 -1.72316 90.2336
lradius 112.49
lwrist 34.6096
lhand -12.7059 10.0999
lfingers 7.12502
lthumb 13.3767 39.6505
rfemur -33.2557 -6.7468 14.7088
rtibia 70.6929
rfoot -7.19375 -12.1998
rtoes -2.17946
lfemur -7.24734 -0.336489 -31.5558
ltibia 43.9122
lfoot -8.91622 -0.0115986
ltoes -26.3541
139
root -16.6801 17.302 22.2296 -9.9473 -48.4093 12.2282
lowerback 9.34491 -1.30081 -5.91868
upperback -0.376794 -2.36497 0.54121
thorax -5.38464 -0.995684 4.22411
lowerneck -19.328 -3.59276 -8.93457
upperneck 20.2625 -3.74696 5.72756
head 9.91571 -1.79113 2.95993
rclavicle -1.90833e-014 -9.54166e-015
rhumerus -55.6636 5.94835 -95.5605
rradius 107.386
rwrist -11.8784
rhand -13.1723 26.6206
rfingers 7.12502
rthumb 12.9271 -2.95896
lclavicle -1.90833e-014 -9.54166e-015
lhumerus -42.6586 -1.66776 90.0245
lradius 112.618
lwrist 34.0774
lhand -12.1916 10.3644
lfingers 7.12502
lthumb 13.8723 39.8817
rfemur -33.3483 -6.39873 15.1105
rtibia 66.567
rfoot -8.35955 -12.8574
rtoes 6.39492
lfemur -6.20561 -0.428785 -31.2258
ltibia 43.4141
lfoot -6.13385 -1.82877
ltoes -27.4267
140
root -16.9652 17.4036 22.4916 -9.87185 -48.6068 11.8771
lowerback 9.29374 -1.4463 -5.64034
upperback -0.404781 -2.51638 0.694657
thorax -5.37195 -1.07571 4.24678
lowerneck -19.3996 -3.54768 -9.07191
upperneck 20.7848 -3.62134 5.56747
head 10.1053 -1.77003 2.95024
rclavicle -9.84978e-014 -2.94201e-014
rhumerus -56.1645 5.81369 -95.4284
rradius 107.406
rwrist -12.0734
rhand -13.2389 27.4159
rfingers 7.12502
rthumb 12.8629 -2.16776
lclavicle -9.84978e-014 -2.94201e-014
lhumerus -42.7654 -1.64864 89.9729
lradius 112.732
lwrist 33.5942
lhand -11.7599 10.2503
lfingers 7.12502
lthumb 14.2884 39.7387
rfemur -33.1263 -6.06831 15.8619
rtibia 61.8995
rfoot -6.96452 -14.6487
rtoes 7.40301
lfemur -4.83088 -0.47297 -30.8224
ltibia 42.7659
lfoot -2.83519 -3.28933
ltoes -29.8002
141
root -17.2568 17.505 22.7534 -9.94 -48.9029 11.7339
lowerback 9.18341 -1.45115 -5.52687
upperback -0.39293 -2.49938 0.763746
thorax -5.30041 -1.07235 4.24835
lowerneck -19.4136 -3.47608 -9.04782
upperneck 21.2239 -3.51183 5.41995
head 10.2536 -1.74267 2.91519
rclavicle 1.75924e-014 -1.59028e-015
rhumerus -57.5193 6.21783 -95.3807
rradius 108.306
rwrist -12.409
rhand -14.0917 27.7979
rfingers 7.12502
rthumb 12.0407 -1.83568
lclavicle 1.75924e-014 -1.59028e-015
lhumerus -42.8676 -1.99279 89.9731
lradius 112.762
lwrist 32.9474
lhand -11.6826 9.98707
lfingers 7.12502
lthumb 14.3628 39.4702
rfemur -32.803 -5.77289 16.4559
rtibia 57.1536
rfoot -5.0189 -15.7512
rtoes 7.1089
lfemur -3.5724 -0.483964 -30.5115
ltibia 42.1669
lfoot 0.635395 -4.70625
ltoes -30.2957
